<?xml version="1.0" standalone="no"?>
<!DOCTYPE svg PUBLIC "-//W3C//DTD SVG 20010904//EN"
 "http://www.w3.org/TR/2001/REC-SVG-20010904/DTD/svg10.dtd">
<svg version="1.0" xmlns="http://www.w3.org/2000/svg"
 width="1916.000000pt" height="1916.000000pt" viewBox="0 0 1916.000000 1916.000000"
 preserveAspectRatio="xMidYMid meet">
<metadata>
Created by potrace 1.11, written by Peter Selinger 2001-2013
</metadata>
<g transform="translate(0.000000,1916.000000) scale(0.100000,-0.100000)"
fill="#000000" stroke="none">
<path d="M18220 12019 c0 -5 22 -37 49 -72 63 -81 200 -335 208 -387 5 -33 27
-105 33 -110 7 -5 25 -88 51 -235 13 -72 21 -224 13 -237 -3 -4 -39 17 -80 46
-70 49 -250 145 -334 177 -45 17 -341 25 -370 9 -11 -6 -39 -15 -62 -20 -62
-13 -122 -36 -219 -84 -155 -78 -265 -174 -316 -275 -27 -54 -28 -62 -29 -216
-1 -232 18 -417 54 -510 28 -76 54 -128 68 -143 9 -8 22 -25 30 -37 27 -41
208 -151 304 -185 82 -29 264 -34 330 -9 43 16 199 36 192 24 -19 -32 -54 -80
-61 -85 -4 -3 -26 -32 -48 -65 -22 -33 -55 -75 -72 -94 -17 -18 -31 -36 -31
-40 0 -3 -34 -42 -75 -86 -41 -44 -91 -101 -112 -127 -44 -54 -50 -56 -163
-65 -104 -8 -156 -31 -165 -75 -8 -34 2 -113 17 -141 8 -15 5 -22 -13 -35 -23
-16 -56 -45 -202 -176 -38 -33 -76 -64 -85 -68 -9 -4 -39 -27 -67 -52 -27 -25
-55 -46 -60 -46 -6 0 -18 -8 -27 -17 -9 -10 -27 -26 -40 -35 -13 -10 -39 -31
-58 -47 -19 -16 -37 -29 -40 -28 -3 1 -35 -20 -71 -48 -35 -27 -91 -68 -124
-90 -33 -22 -62 -42 -65 -45 -3 -3 -21 -14 -40 -24 -19 -11 -37 -22 -40 -26
-3 -3 -23 -17 -45 -30 -22 -13 -45 -29 -52 -35 -30 -25 -67 -50 -98 -65 -39
-19 -237 -140 -245 -150 -3 -3 -20 -12 -39 -20 -19 -8 -60 -31 -92 -52 -31
-21 -63 -38 -72 -38 -8 0 -20 -7 -27 -15 -7 -8 -18 -15 -25 -15 -8 0 -15 -4
-17 -8 -1 -4 -25 -18 -53 -31 -27 -13 -77 -40 -110 -60 -55 -34 -148 -81 -160
-81 -3 0 -23 -11 -45 -25 -22 -14 -46 -25 -54 -25 -8 0 -16 -3 -18 -7 -1 -5
-30 -21 -63 -38 -33 -16 -62 -32 -65 -35 -3 -3 -12 -6 -20 -8 -17 -3 -102 -44
-110 -52 -3 -3 -39 -20 -80 -39 -92 -40 -184 -83 -270 -124 -36 -17 -73 -30
-82 -29 -10 2 -18 -2 -18 -7 0 -6 -9 -11 -20 -11 -11 0 -20 -4 -20 -10 0 -5
-6 -10 -12 -10 -7 0 -44 -16 -83 -35 -39 -19 -79 -36 -90 -38 -11 -2 -42 -13
-70 -26 -27 -12 -68 -30 -90 -38 -22 -8 -56 -22 -75 -31 -19 -9 -39 -17 -45
-17 -13 -1 -45 -14 -67 -26 -10 -5 -25 -9 -33 -9 -8 0 -15 -4 -15 -10 0 -5
-11 -10 -25 -10 -14 0 -25 -4 -25 -10 0 -5 -9 -10 -19 -10 -11 0 -22 -4 -25
-9 -3 -5 -23 -12 -43 -16 -35 -6 -85 -24 -125 -46 -10 -5 -25 -9 -33 -9 -8 0
-15 -4 -15 -10 0 -5 -13 -10 -28 -10 -15 0 -32 -4 -38 -10 -5 -5 -18 -11 -29
-13 -19 -4 -33 -9 -80 -27 -11 -4 -38 -13 -60 -20 -22 -7 -53 -18 -70 -25 -51
-22 -70 -28 -77 -27 -7 2 -60 -16 -113 -38 -11 -5 -45 -17 -75 -27 -30 -10
-57 -20 -60 -23 -3 -3 -18 -6 -34 -7 -16 0 -38 -6 -50 -11 -11 -6 -43 -18 -71
-27 -27 -10 -59 -21 -70 -26 -11 -5 -31 -10 -45 -12 -14 -1 -29 -5 -35 -9 -5
-3 -29 -9 -52 -13 -24 -4 -45 -10 -48 -15 -3 -4 -22 -11 -42 -15 -21 -4 -43
-11 -49 -16 -6 -5 -24 -10 -40 -12 -39 -5 -115 -25 -134 -36 -9 -5 -31 -12
-50 -16 -19 -4 -40 -11 -46 -16 -6 -5 -29 -11 -50 -13 -40 -3 -136 -30 -166
-46 -9 -5 -40 -12 -70 -16 -29 -4 -57 -10 -63 -14 -5 -4 -39 -13 -75 -20 -36
-7 -69 -16 -75 -21 -13 -9 -86 -24 -103 -20 -8 1 -19 -2 -25 -7 -7 -5 -48 -17
-92 -27 -44 -9 -85 -21 -91 -26 -6 -5 -24 -10 -40 -10 -45 -2 -173 -30 -179
-39 -3 -5 -31 -11 -63 -15 -67 -7 -193 -35 -207 -45 -5 -4 -32 -10 -60 -14
-47 -6 -142 -24 -415 -77 -63 -12 -142 -26 -175 -30 -33 -4 -98 -17 -145 -27
-47 -11 -96 -20 -110 -20 -14 0 -76 -12 -139 -26 -62 -14 -125 -24 -139 -21
-14 2 -75 -6 -136 -19 -61 -13 -129 -23 -151 -23 -23 -1 -80 -8 -128 -18 -48
-9 -93 -15 -100 -12 -8 3 -43 -1 -79 -9 -75 -15 -144 -24 -240 -29 -37 -1 -71
-6 -76 -9 -11 -6 -122 -18 -177 -18 -22 0 -59 -4 -83 -9 -24 -5 -66 -11 -94
-14 -28 -2 -53 -6 -56 -9 -3 -3 -11 -1 -18 5 -8 7 -25 7 -51 0 -39 -10 -130
-19 -263 -26 -147 -8 -266 -15 -330 -21 -100 -8 -514 -24 -630 -24 -36 0 -87
-1 -115 -2 -158 -5 -1000 6 -1000 12 0 2 -49 4 -110 5 -60 2 -137 6 -171 9
-33 4 -104 9 -158 11 -53 3 -101 7 -105 9 -4 3 -63 8 -131 11 -68 3 -127 8
-132 11 -8 5 -27 7 -178 19 -47 4 -88 9 -91 11 -7 4 -48 9 -157 19 -35 4 -73
9 -85 11 -34 8 -69 14 -112 18 -22 3 -62 8 -90 12 -27 3 -57 7 -65 8 -9 1 -20
5 -25 8 -10 6 -57 14 -125 22 -43 6 -342 67 -462 95 -49 12 -103 23 -120 25
-18 2 -60 13 -93 25 -33 11 -76 23 -95 26 -59 8 -164 36 -176 46 -11 9 -36 17
-74 23 -12 2 -69 18 -110 31 -10 3 -45 17 -65 25 -19 8 -64 23 -75 25 -22 3
-181 59 -203 71 -15 9 -40 19 -55 24 -63 19 -196 71 -202 78 -3 4 -44 23 -92
41 -49 19 -88 38 -88 44 0 5 -7 7 -15 3 -8 -3 -15 -1 -15 3 0 5 -12 14 -28 20
-15 6 -64 31 -109 55 -45 24 -84 41 -86 39 -2 -2 -10 3 -17 12 -7 8 -17 15
-22 15 -6 0 -31 15 -57 33 -25 19 -62 41 -81 51 -73 37 -90 47 -90 57 0 5 -5
9 -10 9 -6 0 -42 24 -80 53 -129 96 -165 121 -150 102 29 -37 175 -171 210
-194 38 -24 192 -138 216 -159 12 -10 28 -22 35 -26 8 -3 28 -15 44 -26 17
-11 37 -23 45 -27 8 -3 29 -16 45 -29 78 -57 546 -290 660 -329 50 -16 66 -23
157 -64 26 -11 53 -21 59 -21 6 0 25 -6 42 -14 62 -27 247 -87 342 -111 28 -6
64 -19 80 -27 17 -9 77 -26 135 -38 58 -12 110 -26 115 -30 6 -4 48 -16 95
-25 47 -9 117 -25 155 -35 104 -28 380 -82 485 -95 30 -4 60 -11 65 -15 6 -4
62 -13 125 -20 63 -6 124 -15 135 -20 11 -5 76 -14 145 -21 69 -6 130 -15 135
-19 6 -4 59 -10 120 -14 60 -4 128 -11 150 -16 22 -5 85 -12 140 -15 55 -3
154 -9 220 -14 536 -42 1208 -55 1755 -35 107 4 229 8 270 9 206 7 354 16 437
25 51 6 97 9 101 6 5 -3 67 1 138 9 71 7 181 19 244 26 63 7 135 13 160 14 25
1 86 8 135 14 50 7 113 14 140 16 28 2 86 8 130 14 44 7 109 14 145 17 36 3
95 11 132 19 37 8 91 15 120 15 29 0 78 7 108 15 30 9 98 20 150 24 52 5 133
16 180 26 104 20 288 55 480 90 80 14 204 37 275 50 72 13 162 29 200 36 39 6
75 15 80 19 10 8 55 17 189 41 37 6 80 18 95 25 14 7 64 18 110 23 46 6 89 15
95 20 6 4 36 14 66 20 30 7 96 22 145 32 50 11 97 24 106 29 8 4 71 20 140 35
68 15 129 31 134 35 6 4 55 18 110 30 55 12 105 26 110 30 6 4 26 11 45 15 19
4 41 11 50 16 8 4 49 15 90 25 41 9 80 20 85 24 6 5 28 11 50 15 22 4 45 11
50 15 13 10 130 40 156 40 10 0 19 3 19 8 0 4 28 16 63 26 34 10 67 22 72 26
6 4 25 8 44 8 19 0 37 4 40 9 3 4 31 16 61 26 30 10 64 22 75 27 11 4 40 13
65 19 41 11 71 22 110 41 8 4 42 15 75 25 33 10 65 21 70 25 6 4 34 13 63 20
28 6 55 16 58 21 3 5 16 9 30 9 13 0 24 5 24 10 0 6 7 10 15 10 8 0 23 4 33 9
29 15 65 28 112 42 25 7 49 16 54 21 6 4 18 8 28 8 10 0 18 5 18 10 0 6 11 10
25 10 14 0 25 5 25 10 0 6 9 10 21 10 12 0 35 6 52 14 18 7 53 23 79 35 26 11
52 21 56 21 5 0 35 13 68 28 32 16 73 32 89 36 17 4 66 25 110 46 112 53 152
70 161 70 5 0 36 13 69 29 114 55 193 91 201 91 8 0 156 72 164 80 7 7 47 25
90 41 19 7 37 16 40 19 7 9 117 60 129 60 6 0 11 3 11 8 0 4 24 18 53 31 28
13 59 27 67 31 31 14 136 73 160 90 14 9 41 23 60 30 19 7 42 19 51 27 8 7 21
13 27 13 7 0 12 5 12 10 0 6 8 10 19 10 10 0 24 7 31 15 7 8 17 15 22 15 5 0
34 16 64 35 30 19 60 35 68 35 7 0 19 7 26 15 7 8 19 15 26 15 8 0 14 4 14 8
0 5 10 14 23 20 12 6 45 25 72 41 28 17 67 39 87 51 20 11 39 24 43 30 3 5 13
10 21 10 9 0 21 6 28 13 8 6 24 19 36 27 12 8 28 20 34 26 7 7 39 27 72 45 32
18 64 38 70 44 6 5 20 16 30 22 11 7 48 33 84 58 36 25 94 65 130 89 61 42
105 76 141 111 9 8 19 15 23 15 10 0 232 175 265 209 15 15 35 32 43 37 15 8
43 32 166 142 41 36 64 36 114 0 27 -19 41 -20 238 -17 150 3 213 8 222 17 6
6 22 12 34 12 50 0 223 98 298 168 91 87 171 204 270 397 70 136 140 347 166
500 43 251 39 364 -18 565 -18 62 -98 231 -116 242 -6 4 -7 8 -1 8 7 0 7 3 0
8 -32 23 -52 70 -54 129 -6 163 -49 433 -72 458 -5 5 -9 19 -9 32 0 12 -5 35
-11 50 -6 15 -15 37 -19 48 -24 63 -111 230 -150 288 -25 38 -49 76 -55 85 -5
10 -29 40 -52 69 -24 28 -43 56 -43 62 0 5 -6 14 -12 18 -7 4 -46 42 -85 84
-40 42 -73 73 -73 68z m-70 -1305 c90 -27 200 -85 227 -121 23 -29 25 -40 21
-100 -5 -95 -42 -165 -133 -255 -11 -11 -38 -29 -60 -40 -37 -20 -45 -20 -134
-8 -52 6 -154 10 -225 8 l-130 -3 -23 60 c-38 99 -24 212 38 299 28 39 140
115 170 116 9 0 22 7 29 15 7 8 24 15 39 15 14 1 40 7 56 15 40 18 62 18 125
-1z m190 -1262 c0 -42 -102 -172 -135 -172 -29 0 -18 20 80 142 28 35 55 50
55 30z"/>
<path d="M15501 11258 c-96 -49 -195 -147 -247 -243 -39 -74 -84 -165 -97
-195 -8 -19 -23 -57 -35 -85 -11 -27 -28 -74 -36 -102 -9 -29 -23 -74 -31
-100 -8 -27 -15 -60 -15 -74 0 -15 -7 -46 -15 -69 -12 -33 -15 -95 -15 -289 0
-135 4 -261 10 -280 5 -18 14 -67 20 -109 6 -42 15 -81 20 -86 6 -6 10 -21 10
-34 0 -13 6 -36 14 -50 8 -15 26 -51 41 -81 61 -123 182 -264 313 -365 109
-83 304 -188 407 -220 33 -11 77 -25 98 -32 45 -17 331 -19 392 -3 22 5 58 15
80 20 134 34 309 179 395 329 46 78 120 250 120 278 1 10 8 35 16 57 8 22 19
74 25 115 6 41 14 100 19 130 14 90 11 323 -4 407 -8 43 -19 105 -25 138 -13
77 -34 162 -49 198 -7 16 -12 32 -12 37 0 8 -21 52 -42 90 -4 8 -11 22 -14 30
-3 8 -10 22 -15 30 -5 8 -16 29 -24 45 -7 17 -24 44 -37 62 -13 17 -30 41 -38
53 -8 12 -24 32 -35 44 -11 12 -36 42 -55 65 -40 49 -131 111 -248 171 -61 32
-98 43 -154 50 -40 4 -100 13 -133 19 -125 25 -172 33 -240 41 -38 5 -83 14
-100 20 -16 6 -68 14 -115 16 -81 5 -88 3 -149 -28z m555 -403 c22 -6 134
-118 134 -133 0 -5 13 -21 28 -38 29 -30 141 -193 168 -246 31 -60 28 -368 -6
-573 -12 -68 -32 -150 -52 -210 -5 -16 -14 -46 -18 -65 -39 -164 -155 -324
-253 -348 -25 -7 -59 -12 -75 -12 -60 0 -132 76 -242 255 -112 183 -135 268
-126 475 14 356 82 640 187 785 54 74 97 104 164 116 40 6 52 6 91 -6z"/>
<path d="M3345 11199 c-104 -43 -208 -142 -263 -252 -51 -102 -92 -196 -92
-210 0 -7 -6 -21 -13 -32 -7 -11 -30 -74 -51 -140 -21 -66 -45 -135 -52 -153
-8 -18 -14 -43 -14 -55 0 -12 -7 -31 -15 -41 -8 -11 -15 -35 -15 -54 0 -18 -6
-43 -12 -55 -7 -12 -18 -44 -24 -72 -7 -27 -19 -75 -27 -105 -9 -30 -21 -75
-27 -100 -6 -25 -18 -69 -26 -97 -25 -92 -46 -167 -60 -213 -7 -25 -23 -79
-34 -120 -12 -41 -26 -84 -30 -95 -20 -49 -72 -214 -80 -250 -4 -22 -13 -56
-19 -75 -12 -39 -15 -259 -3 -275 10 -15 59 -45 72 -45 6 0 26 -11 44 -25 39
-30 103 -33 162 -9 49 20 177 149 232 232 23 35 42 68 42 74 0 5 6 22 14 36 8
15 29 58 47 97 37 78 113 161 157 171 15 3 43 11 62 19 19 7 133 21 252 31
244 19 424 15 463 -10 59 -39 80 -160 70 -403 l-7 -162 26 -26 c14 -14 34 -25
45 -25 11 0 32 -12 46 -27 23 -26 32 -28 116 -32 l90 -3 48 49 c60 60 76 109
66 208 -4 38 -11 77 -16 86 -5 9 -11 43 -15 75 -4 33 -12 73 -20 89 -7 17 -15
50 -17 75 -3 25 -10 65 -17 90 -6 25 -16 65 -22 90 -5 25 -19 83 -30 130 -11
47 -22 108 -25 135 -3 28 -9 55 -13 60 -5 6 -11 28 -14 50 -16 100 -52 257
-78 330 -5 17 -14 47 -19 67 -5 20 -15 52 -23 70 -8 18 -21 49 -30 70 -9 20
-16 42 -16 50 0 7 -7 22 -15 32 -8 11 -15 30 -15 42 0 12 -7 27 -15 34 -8 7
-15 22 -15 34 0 12 -7 31 -15 42 -8 10 -15 25 -15 31 0 7 -16 46 -35 87 -19
41 -35 78 -35 81 0 3 -12 24 -27 48 -41 62 -51 80 -62 103 -17 37 -115 137
-166 169 -142 90 -155 95 -267 94 -79 0 -114 -5 -153 -20z m290 -447 c15 -11
55 -70 55 -81 0 -5 6 -22 14 -38 26 -50 46 -101 46 -115 0 -7 6 -22 13 -33 23
-34 100 -281 112 -356 7 -43 5 -45 -152 -129 -21 -11 -48 -20 -61 -20 -13 0
-36 -7 -52 -15 -24 -13 -55 -14 -169 -9 l-140 7 15 28 c7 15 14 37 14 47 0 11
7 33 15 48 8 16 15 43 15 60 0 17 7 51 15 74 8 23 15 66 15 94 0 28 7 73 15
100 8 27 15 67 15 89 0 35 17 88 41 127 5 8 14 26 20 40 12 30 43 60 61 60 7
1 24 7 38 15 28 16 41 18 55 7z"/>
<path d="M7408 11182 c-32 -25 -58 -57 -79 -99 -29 -60 -30 -64 -15 -94 22
-43 22 -353 1 -493 -8 -55 -15 -120 -15 -145 -1 -25 -7 -75 -15 -111 -8 -36
-14 -86 -15 -111 0 -26 -7 -66 -15 -89 -8 -23 -15 -62 -15 -85 0 -23 -4 -55
-10 -71 -5 -16 -16 -63 -24 -104 -13 -69 -24 -115 -56 -240 -7 -25 -18 -58
-25 -75 -48 -106 -57 -124 -69 -134 -18 -15 -21 -7 -104 244 -6 17 -17 55 -25
85 -28 103 -48 175 -58 205 -6 17 -17 54 -25 83 -8 28 -21 78 -30 110 -8 31
-22 80 -29 107 -15 57 -31 105 -51 153 -8 18 -14 43 -14 55 0 13 -7 32 -15 43
-8 10 -15 26 -15 34 0 17 -37 108 -63 158 -24 44 -95 112 -117 112 -9 0 -34
14 -55 30 -46 36 -85 39 -158 9 -29 -12 -70 -28 -92 -37 -78 -32 -180 -123
-236 -212 -9 -14 -25 -34 -36 -45 -10 -11 -28 -36 -38 -55 -11 -19 -26 -43
-33 -52 -33 -40 -113 -201 -224 -448 -11 -25 -24 -52 -28 -60 -5 -8 -34 -66
-66 -128 -75 -148 -106 -172 -135 -104 -31 72 -79 284 -79 347 0 23 -7 95 -15
160 -9 66 -18 163 -21 215 -3 52 -12 131 -20 176 -7 44 -14 106 -14 138 0 31
-7 73 -15 93 -8 19 -15 46 -15 58 0 33 -36 123 -68 170 -34 50 -168 126 -247
141 -31 5 -42 1 -93 -37 -129 -97 -152 -139 -152 -281 1 -75 5 -108 15 -122 8
-11 15 -28 15 -39 0 -10 6 -31 14 -45 20 -39 74 -191 82 -232 4 -19 10 -39 15
-45 4 -5 11 -28 15 -50 4 -22 13 -49 20 -60 8 -11 14 -33 14 -50 0 -16 6 -50
14 -75 18 -58 35 -124 45 -175 4 -22 12 -56 18 -75 7 -19 16 -57 21 -85 6 -27
17 -77 25 -110 9 -33 22 -89 31 -125 54 -226 123 -453 163 -537 28 -58 115
-153 140 -153 9 0 32 -12 51 -26 29 -23 44 -27 95 -26 51 1 68 6 109 34 55 37
117 123 168 233 18 39 46 99 63 135 17 36 38 83 48 105 10 22 32 70 49 106 16
36 30 73 30 82 0 9 3 17 8 17 7 0 25 37 75 150 31 72 79 177 156 340 9 19 20
38 24 41 4 3 16 21 26 39 10 19 23 36 28 37 12 4 68 -61 102 -117 53 -88 71
-147 92 -293 5 -37 16 -93 24 -124 8 -32 15 -77 15 -101 0 -24 4 -52 10 -62 5
-10 14 -52 19 -92 21 -166 72 -286 179 -418 42 -53 71 -73 210 -147 55 -28 73
-33 134 -33 66 0 76 3 127 37 109 74 177 143 259 266 18 26 32 54 32 62 0 8 5
17 10 20 13 8 40 67 70 155 13 36 27 70 31 75 4 6 10 28 14 50 4 22 14 52 21
67 8 15 14 36 14 46 0 11 7 33 15 48 8 16 15 38 15 49 0 11 6 32 14 47 8 14
17 45 21 67 4 23 11 43 16 47 5 3 9 15 9 26 0 18 43 159 85 278 33 92 45 153
45 226 1 43 7 106 15 139 8 33 15 96 15 140 0 44 5 96 11 115 19 62 30 250 19
305 -25 114 -54 147 -192 224 -53 29 -64 31 -150 31 -92 -1 -94 -1 -140 -38z"/>
<path d="M8893 11198 c-64 -25 -156 -98 -205 -163 -35 -46 -70 -111 -104 -192
-23 -56 -45 -107 -59 -138 -8 -16 -30 -82 -51 -145 -20 -63 -43 -130 -50 -148
-8 -18 -14 -43 -14 -55 0 -12 -7 -31 -15 -41 -8 -11 -15 -34 -15 -50 0 -17 -7
-44 -15 -60 -8 -15 -15 -39 -15 -51 0 -13 -5 -36 -11 -52 -11 -27 -27 -83 -54
-193 -22 -85 -42 -158 -65 -235 -12 -38 -25 -88 -29 -110 -4 -22 -13 -50 -19
-62 -7 -12 -12 -29 -12 -38 0 -9 -6 -31 -14 -48 -23 -53 -77 -219 -86 -267 -5
-25 -14 -61 -19 -80 -6 -19 -11 -85 -11 -147 l0 -112 33 -25 c19 -15 40 -26
47 -26 7 0 28 -11 46 -25 52 -40 165 -28 215 24 9 9 27 25 40 37 62 54 179
208 179 236 0 5 6 22 14 36 8 15 32 62 53 106 23 48 52 91 75 110 73 63 118
75 363 98 245 23 450 20 489 -5 60 -40 81 -161 71 -400 -8 -182 -3 -199 65
-217 22 -6 40 -15 40 -20 0 -22 61 -40 137 -40 73 1 80 3 114 33 61 55 73 83
74 172 0 71 -12 145 -46 280 -6 22 -14 65 -18 96 -5 30 -13 65 -20 77 -6 11
-11 33 -11 47 0 26 -15 95 -47 220 -9 33 -19 83 -24 110 -4 28 -12 68 -18 90
-6 22 -17 76 -26 120 -29 145 -59 251 -112 390 -69 180 -76 197 -112 276 -12
25 -21 49 -21 53 0 27 -79 179 -145 281 -83 126 -114 153 -277 244 -54 29 -63
31 -160 30 -79 0 -115 -5 -155 -21z m354 -548 c29 -58 53 -114 53 -125 0 -11
6 -29 13 -40 21 -32 100 -280 112 -350 5 -37 3 -43 -24 -63 -17 -12 -32 -22
-35 -22 -3 0 -27 -13 -55 -29 -85 -51 -150 -64 -313 -65 -136 -1 -164 3 -139
19 5 3 12 20 16 38 4 17 12 50 20 72 20 62 36 142 45 230 4 44 13 96 19 115 6
19 11 53 11 75 0 43 58 171 92 202 24 22 97 53 118 50 8 -1 38 -49 67 -107z"/>
<path d="M10885 11209 c-27 -4 -126 -11 -220 -15 -97 -4 -187 -12 -210 -20
-22 -8 -48 -14 -58 -14 -10 0 -51 -16 -90 -35 -66 -32 -76 -41 -114 -104 -24
-38 -43 -75 -43 -83 0 -30 31 -58 63 -58 24 0 35 -6 42 -22 10 -23 13 -23 226
-26 l216 -2 -4 -138 c-3 -79 0 -162 6 -197 6 -33 16 -123 21 -200 5 -77 14
-169 19 -205 15 -91 29 -899 16 -910 -5 -4 -75 -11 -155 -15 -111 -5 -153 -11
-182 -26 -61 -31 -106 -105 -94 -154 9 -34 82 -114 121 -132 17 -7 39 -19 50
-26 115 -72 175 -84 342 -68 167 15 276 14 320 -4 19 -8 43 -15 53 -15 9 0 29
-9 43 -20 53 -42 106 -13 168 90 18 30 37 57 41 58 4 2 8 9 8 15 0 7 7 26 16
42 27 51 2 102 -81 163 -5 4 -31 17 -57 30 -26 13 -50 27 -53 33 -4 5 -14 9
-24 9 -10 0 -38 10 -62 23 -43 23 -44 25 -50 83 -3 32 -11 86 -17 119 -13 69
-30 341 -42 695 -5 135 -13 274 -19 310 -14 85 -14 311 0 347 31 79 55 112
103 144 28 19 55 36 61 38 5 2 29 12 52 22 23 11 44 19 47 19 11 0 112 64 124
78 19 24 15 54 -13 95 -20 29 -32 37 -55 37 -20 0 -35 8 -46 25 l-16 25 -202
-1 c-110 -1 -223 -5 -251 -10z"/>
<path d="M12165 11204 c-60 -6 -159 -13 -220 -14 -67 0 -126 -6 -150 -15 -22
-8 -51 -15 -65 -15 -14 -1 -54 -16 -90 -34 -52 -26 -73 -44 -107 -92 -65 -93
-57 -154 22 -154 18 0 28 -7 35 -25 l10 -25 221 0 c207 0 221 -1 214 -17 -10
-27 -7 -319 5 -361 5 -21 14 -111 20 -201 6 -90 14 -168 18 -175 10 -16 19
-890 8 -897 -4 -4 -74 -10 -155 -14 -168 -8 -210 -23 -248 -91 -44 -77 -20
-140 77 -206 154 -105 235 -126 417 -109 176 16 258 14 331 -9 35 -11 73 -27
85 -35 39 -27 71 -19 113 29 45 50 104 142 104 162 0 7 5 16 10 19 15 9 12 52
-5 85 -16 31 -63 70 -117 99 -18 10 -46 25 -63 34 -16 8 -52 25 -80 35 l-49
20 -18 99 c-11 54 -23 184 -28 288 -5 105 -13 222 -19 260 -6 39 -11 149 -11
245 0 96 -7 234 -15 305 -34 297 -4 429 109 490 20 11 36 23 36 27 0 5 7 8 15
8 19 0 162 69 203 98 25 18 32 30 32 57 0 43 -42 95 -76 95 -14 0 -35 11 -48
25 l-23 25 -194 -1 c-107 -1 -243 -8 -304 -15z"/>
<path d="M13920 11209 c-19 -4 -53 -12 -75 -17 -51 -11 -82 -31 -129 -84 -42
-46 -49 -62 -78 -158 -17 -58 -20 -108 -25 -452 -6 -419 -6 -419 51 -538 31
-65 58 -85 241 -178 138 -70 213 -89 360 -92 64 -1 117 -8 150 -19 49 -17 50
-19 67 -77 9 -32 17 -75 17 -95 2 -77 -68 -180 -150 -221 -70 -35 -129 -58
-148 -58 -11 0 -32 -5 -48 -12 -28 -12 -68 -17 -318 -38 -77 -6 -147 -15 -155
-19 -8 -5 -34 -39 -57 -77 -38 -63 -42 -75 -42 -138 -1 -60 3 -75 25 -108 15
-21 31 -38 36 -38 6 0 46 -20 90 -45 l80 -45 153 0 c113 0 164 4 196 16 24 8
71 18 104 21 33 3 66 10 73 16 7 5 43 13 80 18 77 8 145 25 184 45 14 8 31 14
36 14 21 0 137 76 190 124 61 56 142 161 142 186 0 8 7 24 15 34 8 11 15 32
15 47 0 14 7 44 16 65 12 29 16 76 17 200 1 165 -1 177 -44 254 -5 8 -13 25
-18 36 -23 53 -230 191 -320 214 -20 5 -61 16 -91 24 -30 8 -75 20 -100 26
-75 19 -153 41 -200 58 -50 17 -108 73 -117 112 -3 14 -12 46 -20 71 -12 38
-12 61 -3 125 6 44 13 97 16 119 7 46 48 137 72 158 60 52 173 77 353 77 77 0
149 -5 159 -10 10 -6 66 -13 123 -17 97 -5 108 -4 141 17 58 35 76 82 76 195
0 75 -4 104 -19 133 -21 40 -80 92 -105 92 -8 0 -28 11 -44 25 l-30 25 -453
-1 c-250 -1 -470 -5 -489 -10z"/>
<path d="M2008 11188 c-52 -18 -58 -23 -58 -47 0 -15 7 -41 15 -58 33 -66 53
-273 36 -373 -6 -36 -16 -110 -22 -165 -6 -55 -15 -129 -20 -165 -4 -36 -13
-121 -20 -190 -6 -69 -12 -126 -13 -127 -2 -3 -46 10 -98 28 -45 16 -247 13
-343 -6 -44 -8 -96 -15 -116 -15 -20 0 -56 -7 -79 -15 -32 -11 -88 -15 -221
-15 -164 0 -179 1 -179 18 0 19 22 221 41 382 11 97 10 111 -7 165 -23 75 -26
249 -5 313 13 40 13 47 -3 77 -10 18 -34 41 -55 51 -20 11 -53 29 -73 42 -76
45 -202 17 -238 -53 -11 -23 -15 -72 -16 -210 -3 -361 -15 -621 -33 -701 l-17
-78 -48 -17 c-26 -10 -65 -20 -86 -24 -85 -14 -187 -104 -254 -223 -18 -33
-18 -34 5 -59 29 -30 143 -113 156 -113 6 0 18 -9 27 -19 28 -30 63 -35 102
-12 18 11 55 21 81 23 l48 3 5 -415 5 -415 40 -3 c35 -3 43 -7 52 -32 11 -29
13 -30 81 -30 97 0 127 12 140 58 20 65 31 135 37 232 4 52 11 103 17 114 6
10 14 42 19 70 5 28 14 79 21 114 9 49 9 80 -1 150 -7 48 -15 104 -18 125 l-5
38 53 -7 c30 -3 79 -12 109 -20 75 -18 367 -23 397 -6 12 6 55 12 95 12 40 0
91 5 113 9 22 5 84 13 138 16 l97 7 0 -197 c0 -152 4 -211 16 -254 32 -111 87
-194 139 -207 15 -4 38 -17 52 -30 14 -13 38 -24 52 -24 32 0 92 36 121 72 53
68 51 20 50 1104 0 666 -4 1012 -10 1025 -6 11 -21 19 -35 19 -14 0 -34 9 -45
20 -26 26 -116 60 -155 59 -16 0 -56 -10 -87 -21z"/>
</g>
</svg>
